<svg width="34" height="30" viewBox="0 0 34 30" fill="none" xmlns="http://www.w3.org/2000/svg">
<path d="M33.5999 10.7714H27.8944L21.9003 0.984936C21.603 0.498797 20.958 0.340075 20.4596 0.632381C19.9623 0.924688 19.8013 1.55646 20.0997 2.04364L25.4455 10.7714H8.15452L13.5003 2.04357C13.7987 1.55639 13.6377 0.924619 13.1404 0.632312C12.641 0.340005 11.9981 0.498728 11.6997 0.984867L5.70557 10.7714H0V12.8285H2.27893L4.94647 26.7675C5.22535 28.227 6.52759 29.2857 8.04318 29.2857H25.5568C27.0723 29.2857 28.3746 28.227 28.6525 26.7685L31.3209 12.8285H33.6C33.5999 12.8285 33.5999 10.7714 33.5999 10.7714ZM26.5883 26.3899C26.4961 26.876 26.0623 27.2286 25.5568 27.2286H8.04318C7.53765 27.2286 7.10395 26.8761 7.01063 26.3889L4.41485 12.8285H29.1851L26.5883 26.3899Z" fill="#414141"/>
</svg>
