<svg width="53" height="53" viewBox="0 0 53 53" fill="none" xmlns="http://www.w3.org/2000/svg">
<g clip-path="url(#clip0)">
<path d="M5.00674 40.8053C5.00674 42.4646 6.35669 43.8146 8.01594 43.8146C9.6753 43.8146 11.0252 42.4646 11.0252 40.8053C11.0252 39.1459 9.6753 37.7959 8.01594 37.7959C6.35669 37.7959 5.00674 39.1459 5.00674 40.8053ZM9.47262 40.8053C9.47262 41.6084 8.81922 42.2618 8.01605 42.2618C7.21287 42.2618 6.55958 41.6084 6.55958 40.8053C6.55958 40.0021 7.21297 39.3487 8.01605 39.3487C8.81912 39.3487 9.47262 40.0022 9.47262 40.8053Z" fill="black"/>
<path d="M11.8417 36.657C13.1481 36.657 14.211 35.5942 14.211 34.2878C14.211 32.9814 13.1481 31.9186 11.8417 31.9186C10.5353 31.9186 9.47253 32.9814 9.47253 34.2878C9.47253 35.5942 10.5353 36.657 11.8417 36.657ZM11.8417 33.4713C12.292 33.4713 12.6582 33.8375 12.6582 34.2877C12.6582 34.7379 12.292 35.1041 11.8417 35.1041C11.3915 35.1041 11.0253 34.7379 11.0253 34.2877C11.0253 33.8375 11.3916 33.4713 11.8417 33.4713Z" fill="black"/>
<path d="M20.1035 46.3732C20.1035 45.0669 19.0406 44.0041 17.7342 44.0041C16.4279 44.0041 15.365 45.0669 15.365 46.3732C15.365 47.6796 16.4279 48.7424 17.7342 48.7424C19.0406 48.7424 20.1035 47.6796 20.1035 46.3732ZM16.9178 46.3732C16.9178 45.9231 17.284 45.5568 17.7343 45.5568C18.1846 45.5568 18.5509 45.9231 18.5509 46.3732C18.5509 46.8234 18.1846 47.1897 17.7343 47.1897C17.284 47.1897 16.9178 46.8234 16.9178 46.3732Z" fill="black"/>
<path d="M51.3426 33.2749C51.119 31.6486 49.7141 30.4222 48.0747 30.4222H47.5248L48.0547 29.0442C48.2086 28.644 48.0089 28.1948 47.6086 28.0409C47.2083 27.8869 46.7592 28.0868 46.6054 28.4869L45.8613 30.4222H42.6304C42.521 30.3697 42.4103 30.3205 42.2974 30.2783C41.4903 29.9775 41.0811 29.5089 41.0811 28.8858C41.0811 28.3052 42.0628 27.8342 42.4855 27.6583C43.7398 27.135 44.6388 26.028 44.8904 24.6966C45.4115 21.9319 45.6481 18.9738 45.7429 17.4556C45.7912 16.6673 45.6127 15.896 45.2269 15.2252C43.2001 11.7011 39.5286 9.3015 38.3007 8.56695V6.08423H38.3412C38.77 6.08423 39.1175 5.73663 39.1175 5.30787V2.51615C39.1175 1.12873 37.9887 0 36.6013 0H30.4527C29.0653 0 27.9365 1.12873 27.9365 2.51615V5.30787C27.9365 5.73663 28.284 6.08423 28.7129 6.08423H28.7535V8.56664C27.961 9.04064 26.1505 10.209 24.4214 11.9247V11.38C25.3058 10.9015 25.9078 9.96555 25.9078 8.89147C25.9078 7.33243 24.6394 6.06415 23.0804 6.06415H10.8133C9.25421 6.06415 7.98594 7.33253 7.98594 8.89147C7.98594 9.96576 8.58829 10.902 9.47294 11.3803V13.7557C8.41025 14.3756 5.5233 16.2184 2.98013 19.2735C2.52321 19.8239 2.23202 20.4917 2.13803 21.2053C2.01164 22.1655 1.8222 23.7331 1.63774 25.748C1.59861 26.175 1.91309 26.5528 2.34009 26.5919C2.36411 26.5941 2.38802 26.5952 2.41172 26.5952C2.8085 26.5952 3.1471 26.2926 3.18395 25.8896C3.36614 23.9 3.55278 22.3542 3.67741 21.4081C3.71799 21.1002 3.82088 20.8074 3.9774 20.5456H21.5713C21.7083 21.837 21.8996 23.2923 22.1636 24.696C22.4139 26.0275 23.3131 27.1349 24.5693 27.6585C24.9911 27.834 25.972 28.3048 25.972 28.8857C25.972 29.5091 25.5632 29.9776 24.7564 30.2784C23.3077 30.8195 22.2863 32.1542 22.1542 33.6786C21.8486 37.1949 21.6218 43.9991 23.5371 50.0616C23.6984 50.5725 23.9499 51.0341 24.2704 51.4327C24.1213 51.4418 23.972 51.4474 23.822 51.4474H10.0711C6.31758 51.4474 3.162 48.5205 2.88707 44.7841C2.53201 39.9579 2.54909 34.636 2.938 28.9663C2.96729 28.5384 2.64432 28.1679 2.2166 28.1385C1.78918 28.1089 1.41818 28.4321 1.38889 28.8599C0.995009 34.6028 0.978033 39.9987 1.33858 44.8979C1.5011 47.1078 2.48646 49.1552 4.11311 50.6633C5.7383 52.1701 7.85426 53 10.0711 53H23.8221C24.5722 53 25.3149 52.9048 26.0342 52.7176C26.5103 52.9003 27.0258 52.9995 27.561 52.9995L48.0747 53C49.7141 53 51.119 51.7737 51.3426 50.1472C52.1122 44.5494 52.1122 38.8728 51.3426 33.2749ZM50.2946 44.645C49.6762 45.0234 48.9726 45.2224 48.2392 45.2224C46.0634 45.2224 44.2933 43.4527 44.2933 41.2775C44.2933 39.1017 46.0635 37.3315 48.2392 37.3315C48.9526 37.3315 49.6386 37.5198 50.2436 37.8779C50.3868 40.1312 50.4042 42.3905 50.2946 44.645ZM44.1932 17.3597C44.1191 18.5461 43.9563 20.6331 43.6348 22.795H23.4198C23.0989 20.6351 22.9349 18.5471 22.86 17.3606C22.8304 16.8762 22.9385 16.4058 23.1731 15.999C23.2678 15.8343 23.3671 15.6723 23.4699 15.5126H43.5839C43.6868 15.6723 43.7862 15.8344 43.8809 15.9991C44.1148 16.4057 44.2227 16.8765 44.1932 17.3597ZM11.0257 11.7189H22.8687V13.4341H11.0257V11.7189ZM29.4892 2.51615C29.4892 1.98491 29.9214 1.55273 30.4527 1.55273H36.6013C37.1325 1.55273 37.5648 1.98491 37.5648 2.51615V4.5315H29.4892V2.51615ZM36.748 6.08423V8.23933H30.3063V6.08423H36.748ZM29.7346 9.79206H37.3195C37.9749 10.175 40.4384 11.6935 42.4096 13.96H24.6442C26.6154 11.6931 29.0798 10.1744 29.7346 9.79206ZM10.8133 7.61689H23.0804C23.7832 7.61689 24.3551 8.18871 24.3551 8.89147C24.3551 9.59404 23.7838 10.1655 23.0813 10.1661H10.8122C10.1098 10.1655 9.53857 9.59393 9.53857 8.89147C9.53857 8.18871 10.1104 7.61689 10.8133 7.61689ZM5.32414 18.9928C7.56463 16.6959 9.83679 15.3336 10.449 14.987H21.9688C21.9213 15.0657 21.8737 15.1441 21.8278 15.2239C21.441 15.8943 21.262 16.6659 21.3104 17.457C21.3365 17.8722 21.3736 18.3958 21.4239 18.9928H5.32414ZM48.0747 51.4473H39.4932V51.4467H38.9488C38.0857 51.4416 37.3475 50.794 37.2295 49.9358C37.1073 49.0459 37.0045 48.1503 36.9239 47.2738C36.8846 46.8469 36.5068 46.532 36.0798 46.5718C35.6528 46.611 35.3385 46.989 35.3777 47.416C35.4604 48.3154 35.5659 49.2342 35.6913 50.1472C35.7565 50.6213 35.9226 51.061 36.1652 51.4466H27.561C26.3898 51.4466 25.3678 50.7021 25.0179 49.5938C23.1836 43.7874 23.4056 37.2143 23.7012 33.8127C23.7818 32.8818 24.4093 32.0655 25.2992 31.733C26.7136 31.2057 27.5247 30.1679 27.5247 28.8856C27.5247 28.1195 27.1155 27.0359 25.1663 26.2251C24.395 25.9035 23.843 25.2247 23.6897 24.409C23.6858 24.3886 23.6821 24.368 23.6784 24.3476H43.3759C43.3721 24.3678 43.3684 24.3882 43.3646 24.4084C43.2103 25.2245 42.6582 25.9036 41.8882 26.2249C39.9376 27.0363 39.5282 28.1197 39.5282 28.8857C39.5282 29.4536 39.6881 29.9733 39.9884 30.4222H38.9589C37.3196 30.4222 35.9146 31.6486 35.6911 33.2748C35.1899 36.9137 35.014 40.6214 35.1679 44.2948C35.1859 44.7232 35.5519 45.0554 35.976 45.0379C36.4045 45.02 36.7373 44.6581 36.7193 44.2297C36.5693 40.6486 36.7408 37.0341 37.2293 33.4865C37.3479 32.6248 38.0915 31.9749 38.959 31.9749H48.0747C48.9423 31.9749 49.6858 32.6248 49.8045 33.4864C49.9241 34.3566 50.0225 35.2291 50.104 36.1026C49.5117 35.8892 48.8834 35.7787 48.2392 35.7787C45.2072 35.7787 42.7406 38.2454 42.7406 41.2775C42.7406 44.3089 45.2072 46.7751 48.2392 46.7751C48.9117 46.7751 49.5662 46.6551 50.1809 46.4229C50.089 47.5963 49.965 48.7678 49.8045 49.9356C49.6858 50.7974 48.9423 51.4473 48.0747 51.4473Z" fill="black"/>
</g>
<defs>
<clipPath id="clip0">
<rect width="53" height="53" fill="white"/>
</clipPath>
</defs>
</svg>
