<svg width="26" height="33" viewBox="0 0 26 33" fill="none" xmlns="http://www.w3.org/2000/svg">
<path d="M0 22.3631C0 28.6087 6.02162 32.6644 6.27799 32.8341C7.02956 33.3312 8.0034 32.6276 7.75482 31.7642C6.2276 26.4595 6.40059 20.9485 10.5218 17.2108C10.0195 19.048 10.1529 20.544 10.9204 21.6627C12.3984 23.8171 15.6824 23.7647 18.2704 23.379C20.2735 25.1326 18.8444 29.198 17.6356 31.5974C17.1897 32.4825 18.2236 33.3787 19.0471 32.834C23.4119 29.9461 25.7449 26.321 25.9814 22.0592C26.4137 14.264 19.2081 5.15526 13.2885 0.227162C12.6563 -0.299151 11.6884 0.147574 11.6884 0.967752C11.6884 6.39844 8.8386 9.05134 5.82156 11.8601C2.95951 14.5245 0 17.2796 0 22.3631ZM13.5029 3.03363C18.4392 7.7082 24.412 15.215 24.036 21.9561C23.8912 24.5519 22.7998 26.8903 20.7829 28.9389C22.3628 23.283 19.1068 21.5801 18.9422 21.4985C18.7581 21.4071 18.5494 21.3761 18.3465 21.4096C15.2676 21.9189 13.2569 21.6307 12.5318 20.5763C11.5256 19.1134 12.9267 16.077 13.4977 15.1272C13.9766 14.3352 13.1644 13.3897 12.3007 13.7323C9.33016 14.9117 3.59491 19.6572 5.2135 29.3741C3.70264 27.8108 1.94807 25.3519 1.94807 22.3631C1.94807 18.1169 4.36076 15.8708 7.15436 13.2701C9.83946 10.7705 12.8412 7.97552 13.5029 3.03363Z" fill="black"/>
</svg>
