<svg width="63" height="41" viewBox="0 0 63 41" fill="none" xmlns="http://www.w3.org/2000/svg">
<path d="M61.9892 26.9594C61.943 26.6644 61.8854 26.3649 61.8152 26.0641C61.1083 23.0418 58.9814 20.3842 55.9169 18.6483V10.8234C55.9348 10.5452 55.8563 10.2641 55.6836 10.0326C50.4938 3.07613 37.1551 0 28.4536 0C25.2145 0 22.0451 0.361083 19.0337 1.0731C10.14 3.17476 0.990295 9.05764 0.990295 17.9109V29.3571C0.990295 32.1637 2.31343 34.7195 4.52936 36.1935C9.14415 39.2656 14.5895 40.8893 20.2767 40.8893C23.4423 40.8893 26.5773 40.3859 29.5948 39.393C36.671 37.0638 47.4795 35.7317 58.4998 35.8301C58.5109 35.8301 58.5221 35.8302 58.5331 35.8302C60.5223 35.8302 62.126 34.2383 62.126 32.2539V27.5135C62.126 27.3133 62.0762 27.1252 61.9892 26.9594ZM59.407 26.2861C58.7249 26.2749 58.037 26.2691 57.3498 26.2691C51.8639 26.2691 46.2683 26.6243 40.9971 27.2995L47.2401 19.1048H48.7371C53.2412 19.1049 58.1854 21.9369 59.407 26.2861ZM37.6277 27.7817C33.3859 28.4563 29.6801 29.3091 26.6087 30.3195C26.1422 30.4728 25.67 30.6074 25.1946 30.7266L34.0482 19.1049H44.238L37.6277 27.7817ZM53.5288 17.5593C51.9679 17.0059 50.3367 16.7167 48.7371 16.7167H32.0358C30.719 16.7167 29.6477 15.6454 29.6477 14.3286C29.6477 13.0118 30.719 11.9405 32.0358 11.9405C34.6231 11.9405 51.3142 11.9405 53.5288 11.9405V17.5593ZM51.9601 9.55246H41.3267L44.5314 5.34627C47.5841 6.52743 50.129 7.97224 51.9601 9.55246ZM19.9713 3.30861C22.6873 2.69821 25.5384 2.38811 28.4536 2.38811C28.7807 2.38811 29.1115 2.39349 29.4437 2.40149L23.0128 10.8434C22.6131 11.3679 22.7145 12.1172 23.2392 12.5168C23.766 12.9183 24.5148 12.8127 24.9126 12.2904L32.3216 2.5646C35.6838 2.86204 39.0437 3.52927 42.162 4.5158L38.3246 9.55246H32.0358C29.4022 9.55246 27.2596 11.6951 27.2596 14.3287C27.2596 16.6471 28.9204 18.5842 31.1144 19.0149L21.7705 31.28C18.3142 31.5358 14.8596 30.8826 11.863 29.4167L19.1345 19.8739C19.5342 19.3493 19.433 18.6002 18.9083 18.2004C18.3835 17.8005 17.6345 17.9019 17.2348 18.4266L9.77653 28.2145C9.25305 27.8631 8.7482 27.484 8.26807 27.0803C6.5078 25.6019 5.204 23.9755 4.38166 22.2376L19.9713 3.30861ZM15.905 4.48942L3.51847 19.5296C3.42713 18.993 3.37841 18.4527 3.37841 17.9109C3.37841 11.3921 9.68602 6.73592 15.905 4.48942ZM59.7379 32.2539C59.7379 32.9166 59.204 33.4421 58.5325 33.4421C58.5287 33.4421 58.5249 33.4421 58.5209 33.442C47.2501 33.3427 36.1584 34.7183 28.848 37.1246C26.0719 38.038 23.1881 38.5012 20.2766 38.5012C15.0618 38.5012 10.0741 37.0159 5.85226 34.2053C4.30321 33.175 3.37841 31.3625 3.37841 29.3571V25.2634C6.75055 30.1885 13.0312 33.723 20.306 33.723C26.5413 33.723 27.1067 31.8111 38.5587 30.0525C44.5023 29.1398 51.0003 28.6574 57.3498 28.6574C58.1489 28.6574 58.9479 28.6657 59.7379 28.6813V32.2539Z" fill="black"/>
</svg>
