<svg width="55" height="55" viewBox="0 0 55 55" fill="none" xmlns="http://www.w3.org/2000/svg">
<g clip-path="url(#clip0)">
<path d="M53.2661 22.4859C53.9824 19.1112 52.6383 16.102 50.2844 13.7483L45.9368 18.0957C46.3043 17.1963 46.5261 16.2362 46.5835 15.2491L44.967 15.155C44.8556 17.0671 43.9717 18.8866 42.545 20.1626L40.2492 17.867C41.835 16.5703 42.2079 14.2078 41.0707 12.4952L43.3865 10.1795C44.1998 11.193 44.7209 12.3941 44.9062 13.6952L46.5093 13.467C46.187 11.204 44.9982 9.43884 43.4176 7.85836L38.8377 12.4382C40.0326 13.6332 40.8419 15.4694 39.0923 16.7101L33.167 10.7848L27.4997 16.4521L21.8324 10.7848L20.2127 12.4044C19.7771 11.6852 19.5876 11.5387 19.7621 10.659C19.9043 9.94232 20.1599 9.36706 20.1232 8.60461C19.8353 2.62111 10.5935 2.8179 10.5935 8.83886C10.5935 9.86524 11.3273 10.8186 10.9563 11.7689C10.63 12.605 10.029 13.1937 9.82498 14.1259C8.10481 12.2569 5.11246 12.0846 3.19529 13.7554C2.18424 14.6364 1.60218 15.8565 1.5563 17.1912C1.51647 18.3519 1.91404 19.5103 2.65554 20.4039C3.21796 21.0816 5.13049 21.6942 5.26856 22.4859H0C0 30.9471 3.29903 38.8852 9.84754 44.3852C16.9897 50.3837 26.951 52.3344 35.8416 49.5074L35.351 47.9642C32.8218 48.7685 30.1804 49.1763 27.5 49.1763C13.5002 49.1763 2.06096 38.0027 1.63165 24.1051H53.3682C53.0824 33.3003 47.942 41.6623 39.8082 46.0681L40.5795 47.4918C49.8454 42.1683 55 34.0722 55 22.4859H53.2661ZM50.2521 16.0705C51.6808 17.8644 52.1887 20.2605 51.6028 22.4859H48.1523C48.8212 21.2028 48.738 19.5905 47.9375 18.385L50.2521 16.0705ZM45.7972 18.4207C46.9756 19.5191 47.5582 21.28 46.1107 22.4858H44.8686L43.692 21.3092C44.448 20.6865 45.3594 19.3814 45.7972 18.4207ZM33.1673 22.1194L29.832 18.784C32.5153 18 35.3181 18.2652 36.785 18.5017L33.1673 22.1194ZM15.427 19.4804C15.3065 20.2355 15.1856 21.2834 15.1748 22.4859H12.4216L15.427 19.4804ZM42.5784 22.4859H39.4634C39.4753 21.3259 39.6002 20.3159 39.7152 19.6225L42.5784 22.4859ZM36.981 16.8884C35.245 16.6094 31.9711 16.3283 28.8436 17.3985L33.1674 13.0747L36.981 16.8884ZM25.6489 16.8908C24.8952 16.7706 23.8496 16.6496 22.6501 16.6382L22.6346 18.2573C23.7676 18.2681 24.7583 18.3875 25.4517 18.5003L21.8328 22.1192L18.4987 18.7851C19.3015 18.5501 20.1681 18.3908 21.0912 18.3131L20.9552 16.6996C19.7169 16.804 18.5614 17.0409 17.5051 17.4022L21.8328 13.0746L25.6489 16.8908ZM12.2144 12.7884C13.3164 11.4285 12.2128 10.2736 12.2128 8.83886C12.2128 4.87379 18.3157 4.72784 18.506 8.68245C18.5512 9.62203 17.9649 10.384 17.9811 11.3068C17.9977 12.2545 18.636 12.7939 19.0188 13.5987L16.1654 16.4521L14.7963 17.8211C13.8223 16.9055 12.7006 16.5589 11.4301 16.2988C11.1308 15.0768 11.4224 13.7655 12.2144 12.7884ZM4.85026 20.1405C3.80239 19.5391 3.13279 18.4732 3.17489 17.2467C3.20511 16.3654 3.59027 15.559 4.25934 14.9761C5.89563 13.55 8.55733 14.2568 9.28534 16.2911C9.6053 17.1856 10.4117 17.8262 11.3393 17.9231C12.213 18.0144 13.0089 18.374 13.6517 18.9658L11.3514 21.266L10.2364 20.1511L9.09157 21.2962L10.3145 22.4859H6.90312C6.80197 21.604 5.8449 20.7114 4.85026 20.1405ZM16.7943 22.4859C16.8058 21.3564 16.9246 20.3688 17.0368 19.6776L19.845 22.4859H16.7943ZM26.7495 19.5566C26.6332 20.3053 26.5199 21.3237 26.5095 22.4858H23.8203L26.7495 19.5566ZM28.1289 22.4859C28.1405 21.3564 28.2592 20.3688 28.3715 19.6776L31.1797 22.4859H28.1289ZM38.0842 19.5566C37.9678 20.3053 37.8546 21.3237 37.8441 22.4858H35.155L38.0842 19.5566Z" fill="black"/>
<path d="M6.7996 19.0045L7.9444 17.8597L9.08897 19.0043L7.94417 20.1491L6.7996 19.0045Z" fill="black"/>
<path d="M14.5338 13.5839H16.153V15.2041H14.5338V13.5839Z" fill="black"/>
<path d="M14.5338 10.3459H16.153V11.965H14.5338V10.3459Z" fill="black"/>
</g>
<defs>
<clipPath id="clip0">
<rect width="55" height="55" fill="white"/>
</clipPath>
</defs>
</svg>
