<svg width="59" height="59" viewBox="0 0 59 59" fill="none" xmlns="http://www.w3.org/2000/svg">
<path d="M54.4099 15.9419C53.6394 15.1714 52.7248 14.5603 51.7182 14.1433C50.7115 13.7264 49.6326 13.5117 48.5431 13.5117C47.4535 13.5117 46.3746 13.7264 45.368 14.1433C44.3613 14.5603 43.4467 15.1714 42.6762 15.9419C42.5906 16.0275 42.5227 16.1291 42.4764 16.241C42.4301 16.3528 42.4062 16.4727 42.4062 16.5938C42.4062 16.7148 42.4301 16.8347 42.4764 16.9466C42.5227 17.0584 42.5906 17.16 42.6762 17.2456L45.2837 19.853C45.4565 20.0259 45.691 20.123 45.9355 20.123C46.18 20.123 46.4144 20.0259 46.5873 19.853C47.106 19.3344 47.8094 19.043 48.5429 19.0429C49.2764 19.0429 49.9799 19.3343 50.4986 19.8529C51.0173 20.3716 51.3087 21.075 51.3087 21.8086C51.3087 22.5421 51.0174 23.2455 50.4987 23.7642C50.4131 23.8498 50.3452 23.9515 50.2989 24.0633C50.2525 24.1752 50.2287 24.295 50.2287 24.4161C50.2287 24.5372 50.2525 24.657 50.2989 24.7689C50.3452 24.8807 50.4131 24.9824 50.4987 25.068L53.1062 27.6755C53.1918 27.7611 53.2935 27.829 53.4053 27.8754C53.5172 27.9217 53.637 27.9455 53.7581 27.9455C53.8792 27.9455 53.9991 27.9217 54.1109 27.8754C54.2228 27.829 54.3244 27.7611 54.41 27.6755C55.1804 26.9051 55.7916 25.9904 56.2086 24.9838C56.6255 23.9772 56.8401 22.8983 56.8401 21.8087C56.8401 20.7191 56.6255 19.6402 56.2086 18.6336C55.7916 17.627 55.1804 16.7123 54.41 15.9419H54.4099ZM53.7114 25.6734L52.3894 24.3512C52.9748 23.4647 53.2362 22.4032 53.1293 21.3462C53.0223 20.2892 52.5536 19.3016 51.8024 18.5504C51.0512 17.7991 50.0636 17.3303 49.0066 17.2233C47.9496 17.1163 46.8881 17.3776 46.0016 17.963L44.6783 16.6399C45.9211 15.7096 47.4575 15.2585 49.0059 15.3693C50.5542 15.4801 52.0108 16.1453 53.1084 17.243C54.2061 18.3406 54.8713 19.7972 54.982 21.3456C55.0928 22.8939 54.6417 24.4304 53.7114 25.6731V25.6734Z" fill="#FF614F"/>
<path d="M11.9844 21.1984C13.316 21.2007 14.6349 20.94 15.8655 20.4311C17.096 19.9222 18.2139 19.1752 19.1549 18.2331C19.2406 18.1475 19.3085 18.0458 19.3548 17.934C19.4012 17.8221 19.425 17.7022 19.425 17.5811C19.425 17.4601 19.4012 17.3402 19.3548 17.2283C19.3085 17.1164 19.2406 17.0148 19.1549 16.9292L6.11768 3.89193C6.03207 3.8063 5.93043 3.73838 5.81857 3.69204C5.70671 3.64569 5.58682 3.62184 5.46574 3.62184C5.34466 3.62184 5.22476 3.64569 5.1129 3.69204C5.00104 3.73838 4.89941 3.8063 4.8138 3.89193C3.39489 5.30948 2.42844 7.11614 2.03678 9.08321C1.64512 11.0503 1.84586 13.0893 2.61358 14.9423C3.38131 16.7952 4.6815 18.3787 6.3496 19.4924C8.01769 20.606 9.97869 21.1998 11.9844 21.1984ZM10.9404 12.1064L10.5696 15.4473C9.87399 15.2242 9.24161 14.8383 8.72503 14.3217C8.20845 13.8052 7.82258 13.1728 7.59947 12.4771L10.9404 12.1064ZM7.39655 10.645C7.46407 9.88629 7.71913 9.15625 8.13877 8.52055L9.97665 10.3585L7.39655 10.645ZM12.6883 13.0702L14.5262 14.9081C13.8905 15.3277 13.1605 15.5828 12.4019 15.6503L12.6883 13.0702ZM5.50175 5.88364L6.8168 7.19858C5.88901 8.44136 5.43983 9.97671 5.55149 11.5236C5.66314 13.0705 6.32816 14.5254 7.42482 15.6221C8.52147 16.7187 9.9764 17.3837 11.5233 17.4954C13.0702 17.607 14.6055 17.1579 15.8483 16.2301L17.1632 17.5451C15.5688 18.8205 13.5601 19.4632 11.5215 19.3503C9.48291 19.2373 7.55752 18.3766 6.11379 16.9329C4.67006 15.4891 3.80936 13.5637 3.6964 11.5251C3.58343 9.4865 4.22613 7.47781 5.50152 5.88341L5.50175 5.88364Z" fill="#FF614F"/>
<path d="M26.4674 16.4785L24.2388 18.7073C24.0659 18.8802 23.9687 19.1147 23.9687 19.3592C23.9687 19.6037 24.0659 19.8381 24.2388 20.011C24.4117 20.1839 24.6461 20.2811 24.8906 20.2811C25.1352 20.2811 25.3696 20.1839 25.5425 20.011L27.7715 17.7825C27.9888 18.352 28.3168 18.8728 28.7367 19.3146C29.1566 19.7565 29.66 20.1106 30.2177 20.3566C30.7754 20.6025 31.3763 20.7354 31.9857 20.7475C32.5951 20.7596 33.2009 20.6507 33.7679 20.4271C34.335 20.2034 34.852 19.8695 35.2891 19.4447C35.7262 19.0199 36.0747 18.5126 36.3143 17.9522C36.554 17.3917 36.6801 16.7893 36.6854 16.1798C36.6906 15.5703 36.5749 14.9658 36.3449 14.4013C36.4414 14.3196 36.5344 14.234 36.6239 14.1445C37.4884 13.28 37.974 12.1076 37.974 10.8851C37.974 9.66262 37.4884 8.49019 36.6239 7.62576C35.7595 6.76133 34.5871 6.2757 33.3646 6.2757C32.1421 6.2757 30.9697 6.76133 30.1052 7.62576C30.0158 7.71518 29.9302 7.80818 29.8484 7.90474C29.0116 7.5769 28.0975 7.49922 27.2174 7.68115C26.3372 7.86307 25.5289 8.29677 24.8906 8.92952C24.349 9.47045 23.9508 10.1378 23.7318 10.8713C23.5129 11.6048 23.4802 12.3813 23.6367 13.1306C23.7932 13.8799 24.134 14.5784 24.6282 15.1629C25.1224 15.7475 25.7545 16.1996 26.4674 16.4785ZM26.1944 10.2328C26.6422 9.78842 27.2279 9.50963 27.8551 9.44227C28.4824 9.37492 29.1139 9.52302 29.6458 9.86223C29.7517 9.93047 29.8704 9.9763 29.9946 9.99688C30.1189 10.0175 30.246 10.0124 30.3683 9.98191C30.4905 9.95145 30.6051 9.89627 30.7052 9.81978C30.8053 9.74328 30.8886 9.6471 30.95 9.53715C31.1583 9.16361 31.4504 8.84347 31.8034 8.6019C32.1563 8.36032 32.5604 8.20389 32.9841 8.14491C33.4077 8.08592 33.8392 8.12599 34.2447 8.26196C34.6502 8.39792 35.0186 8.62609 35.3211 8.92851C35.6235 9.23094 35.8517 9.59939 35.9876 10.0049C36.1236 10.4104 36.1637 10.8419 36.1047 11.2655C36.0457 11.6891 35.8893 12.0933 35.6477 12.4462C35.4061 12.7992 35.086 13.0913 34.7124 13.2996C34.6025 13.361 34.5063 13.4443 34.4298 13.5444C34.3533 13.6444 34.2981 13.7591 34.2677 13.8813C34.2372 14.0035 34.2321 14.1307 34.2527 14.2549C34.2733 14.3792 34.3191 14.4979 34.3873 14.6038C34.7266 15.1357 34.8747 15.7673 34.8073 16.3945C34.7399 17.0218 34.4611 17.6075 34.0166 18.0553C33.6393 18.4331 33.1605 18.6935 32.6383 18.805C32.1161 18.9165 31.5727 18.8743 31.074 18.6836C30.5752 18.4928 30.1423 18.1617 29.8278 17.7302C29.5132 17.2987 29.3304 16.7853 29.3014 16.2521L32.0149 13.5384C32.1878 13.3655 32.2849 13.1311 32.2849 12.8866C32.2849 12.6421 32.1878 12.4076 32.0149 12.2347C31.842 12.0618 31.6075 11.9647 31.363 11.9647C31.1185 11.9647 30.884 12.0618 30.7111 12.2347L27.9978 14.9479C27.4647 14.9188 26.9514 14.7359 26.52 14.4213C26.0886 14.1068 25.7575 13.674 25.5667 13.1753C25.376 12.6766 25.3338 12.1334 25.4451 11.6112C25.5565 11.089 25.8168 10.6103 26.1944 10.2328Z" fill="#FF614F"/>
<path d="M53.4688 33.1875C53.4673 32.0612 53.0542 30.9742 52.3071 30.1313C51.56 29.2884 50.5305 28.7477 49.4125 28.6111C49.0962 27.8712 48.5918 27.227 47.9494 26.7424C47.3071 26.2579 46.5491 25.9498 45.7508 25.8489C44.9525 25.7479 44.1417 25.8576 43.399 26.1671C42.6562 26.4765 42.0074 26.9749 41.5169 27.6128C40.8883 26.3621 39.9531 25.291 38.7987 24.4995C37.6443 23.7079 36.3081 23.2216 34.9149 23.0861C33.5218 22.9505 32.1169 23.17 30.8315 23.7241C29.5461 24.2782 28.422 25.1489 27.5641 26.2549C27.302 26.1122 27.0233 26.0023 26.7344 25.9277V25.8125C26.7344 24.8345 26.3459 23.8966 25.6543 23.205C24.9628 22.5135 24.0249 22.125 23.0469 22.125C22.0689 22.125 21.131 22.5135 20.4394 23.205C19.7479 23.8966 19.3594 24.8345 19.3594 25.8125V25.927C18.8787 26.0494 18.428 26.2681 18.0344 26.57C17.6409 26.8718 17.3127 27.2504 17.0699 27.6829C14.5148 25.9083 10.9164 25.2807 6.34527 25.8188C6.121 25.8453 5.91423 25.9531 5.76418 26.1218C5.61414 26.2906 5.53125 26.5086 5.53125 26.7344C5.53125 26.8888 5.5528 30.0774 7.08265 33.1875H5.53125C5.28675 33.1875 5.05227 33.2846 4.87939 33.4575C4.7065 33.6304 4.60938 33.8649 4.60938 34.1094V37.7969C4.61352 41.463 6.07174 44.9779 8.66412 47.5703C11.2565 50.1626 14.7713 51.6209 18.4375 51.625H20.2812V54.3906C20.2812 54.6351 20.3784 54.8696 20.5513 55.0425C20.7241 55.2154 20.9586 55.3125 21.2031 55.3125H37.7969C38.0414 55.3125 38.2759 55.2154 38.4487 55.0425C38.6216 54.8696 38.7188 54.6351 38.7188 54.3906V51.625H40.5625C44.2287 51.6209 47.7435 50.1626 50.3359 47.5703C52.9283 44.9779 54.3865 41.463 54.3906 37.7969V34.1094C54.3906 33.8649 54.2935 33.6304 54.1206 33.4575C53.9477 33.2846 53.7132 33.1875 53.4688 33.1875ZM42.4924 29.7329C42.6457 29.1388 42.992 28.6125 43.477 28.2367C43.962 27.861 44.5581 27.6571 45.1716 27.6571C45.7852 27.6571 46.3813 27.861 46.8663 28.2367C47.3513 28.6125 47.6976 29.1388 47.8508 29.7329C47.904 29.9354 48.0242 30.1139 48.1917 30.2395C48.3593 30.365 48.5644 30.4301 48.7736 30.4243L48.8162 30.4227C48.8302 30.4227 48.8444 30.4213 48.8589 30.4213C49.5921 30.4222 50.2951 30.7138 50.8136 31.2323C51.332 31.7507 51.6237 32.4537 51.6245 33.1869H42.1988C42.4305 32.1699 42.4687 31.1183 42.3114 30.0871C42.3971 29.9838 42.4589 29.8628 42.4924 29.7329ZM34.1094 24.8906C35.1142 24.8914 36.1051 25.1266 37.003 25.5776C37.901 26.0286 38.6813 26.6829 39.2819 27.4886C39.8826 28.2942 40.2869 29.2288 40.4628 30.2182C40.6387 31.2075 40.5813 32.2242 40.2952 33.1875H38.3321C38.6391 32.486 38.7665 31.7191 38.7028 30.956C38.639 30.1929 38.3862 29.4577 37.9671 28.8169C37.548 28.176 36.9758 27.6496 36.3023 27.2853C35.6288 26.921 34.8751 26.7303 34.1094 26.7303C33.3436 26.7303 32.59 26.921 31.9164 27.2853C31.2429 27.6496 30.6708 28.176 30.2517 28.8169C29.8326 29.4577 29.5797 30.1929 29.516 30.956C29.4523 31.7191 29.5796 32.486 29.8866 33.1875H27.9236C27.6375 32.2242 27.5801 31.2075 27.756 30.2182C27.9318 29.2288 28.3362 28.2942 28.9368 27.4886C29.5374 26.6829 30.3178 26.0286 31.2157 25.5776C32.1137 25.1266 33.1045 24.8914 34.1094 24.8906ZM32.049 33.1875C31.6928 32.7897 31.4593 32.2972 31.3769 31.7696C31.2945 31.242 31.3665 30.7018 31.5844 30.2143C31.8023 29.7267 32.1567 29.3127 32.6047 29.0222C33.0528 28.7316 33.5754 28.577 34.1094 28.577C34.6434 28.577 35.166 28.7316 35.614 29.0222C36.0621 29.3127 36.4165 29.7267 36.6343 30.2143C36.8522 30.7018 36.9243 31.242 36.8418 31.7696C36.7594 32.2972 36.526 32.7897 36.1698 33.1875H32.049ZM18.4461 29.3254C18.4874 28.8679 18.6989 28.4426 19.0387 28.1335C19.3785 27.8244 19.8219 27.6541 20.2812 27.6562C20.5257 27.6562 20.7602 27.5591 20.9331 27.3862C21.106 27.2134 21.2031 26.9789 21.2031 26.7344V25.8125C21.2031 25.3235 21.3974 24.8545 21.7431 24.5088C22.0889 24.163 22.5579 23.9688 23.0469 23.9688C23.5359 23.9688 24.0048 24.163 24.3506 24.5088C24.6964 24.8545 24.8906 25.3235 24.8906 25.8125V26.7344C24.8906 26.9789 24.9878 27.2134 25.1606 27.3862C25.3335 27.5591 25.568 27.6562 25.8125 27.6562C26.083 27.6564 26.3502 27.7163 26.5948 27.8318C25.8116 29.503 25.6092 31.3881 26.0199 33.1875H18.6856C18.8283 32.9407 19.0261 32.7303 19.2635 32.5725C19.3901 32.4884 19.4939 32.3742 19.5657 32.2403C19.6376 32.1063 19.6752 31.9567 19.6752 31.8047C19.6752 31.6527 19.6376 31.503 19.5657 31.3691C19.4939 31.2351 19.3901 31.121 19.2635 31.0369C19.0095 30.8689 18.8012 30.6406 18.657 30.3724C18.5129 30.1042 18.4375 29.8045 18.4375 29.5C18.4375 29.445 18.4404 29.3868 18.4461 29.3254ZM16.5967 29.643C16.6265 30.4314 16.9091 31.1893 17.4027 31.8047C17.0765 32.2113 16.8406 32.6827 16.7106 33.1875H15.9953L8.86337 27.4819C12.2176 27.4 14.811 28.1239 16.5967 29.643ZM7.60547 28.8371L13.0437 33.1875H9.18107C8.28431 31.7079 7.83294 30.0853 7.60547 28.8371ZM36.875 53.4688H22.125V51.625H36.875V53.4688ZM52.5469 37.7969C52.5433 40.9742 51.2795 44.0204 49.0328 46.2671C46.786 48.5139 43.7398 49.7777 40.5625 49.7812H18.4375C15.2602 49.7777 12.214 48.5139 9.96724 46.2671C7.72052 44.0204 6.45672 40.9742 6.45312 37.7969V35.0312H52.5469V37.7969Z" fill="#FF614F"/>
</svg>
