<svg width="59" height="51" viewBox="0 0 59 51" fill="none" xmlns="http://www.w3.org/2000/svg">
<path d="M59 23.2661C59 21.1663 57.4077 18.1653 49.8226 15.7939C46.1656 14.6507 41.7105 13.8529 36.8606 13.4515C37.0624 12.6561 37.4244 11.8889 37.9476 11.1951C40.3505 8.00845 40.353 3.72763 37.9548 0.538854C37.5309 -0.0356505 36.7154 -0.17281 36.1196 0.234359C35.5168 0.646361 35.3686 1.46122 35.788 2.05336C35.7955 2.06394 35.8031 2.07452 35.8111 2.08497C37.5148 4.34445 37.5146 7.38065 35.8107 9.64013C34.9746 10.749 34.4299 11.9904 34.1751 13.2721C32.6644 13.1948 31.1245 13.1544 29.5658 13.1533C29.7776 12.4647 30.111 11.8018 30.5684 11.1951C32.9714 8.00845 32.9739 3.72763 30.5756 0.538854C30.1517 -0.0356505 29.3363 -0.17281 28.7404 0.234359C28.1377 0.646361 27.9895 1.46122 28.4088 2.05336C28.4164 2.06394 28.424 2.07452 28.432 2.08497C30.1356 4.34445 30.1355 7.38065 28.4316 9.64013C27.6128 10.7259 27.0735 11.9389 26.8121 13.1923C25.2105 13.2388 23.6363 13.3269 22.1015 13.4546C22.3032 12.6582 22.6654 11.8898 23.1893 11.1951C25.5945 8.00558 25.5946 3.71953 23.1898 0.52984C23.1828 0.520566 23.1745 0.509854 23.1672 0.500841C22.7147 -0.0672627 21.8793 -0.166671 21.3013 0.277989C20.7312 0.716247 20.6245 1.52092 21.0551 2.08798C22.7565 4.3472 22.7554 7.38157 21.0524 9.64C20.1165 10.8811 19.5465 12.2885 19.3389 13.7325C15.5756 14.1787 12.1183 14.8745 9.17735 15.7939C1.59225 18.1652 0 21.1663 0 23.2661C0 23.3004 0.000531859 23.3348 0.00132965 23.3695C0.0297841 30.7502 3.10233 37.682 8.66225 42.898C14.2315 48.1228 21.6318 51 29.4999 51C37.3681 51 44.7684 48.1226 50.3376 42.898C55.8975 37.6819 58.9701 30.7502 58.9985 23.3695C58.9995 23.3348 59 23.3004 59 23.2661ZM9.98378 18.2836C12.6959 17.4357 15.8822 16.7872 19.3598 16.3606C19.5842 17.7528 20.1483 19.1067 21.0523 20.3057C21.3132 20.6516 21.7147 20.8345 22.1217 20.8345C22.3967 20.8345 22.6742 20.751 22.9121 20.5778C23.5022 20.1484 23.6262 19.3303 23.189 18.7506C22.5762 17.9378 22.185 17.0244 22.0131 16.0831C23.5264 15.9515 25.083 15.8599 26.6695 15.8101C26.8224 17.3945 27.4085 18.9494 28.4314 20.3058C28.6923 20.6517 29.0939 20.8346 29.5009 20.8346C29.7758 20.8346 30.0533 20.7511 30.2912 20.5779C30.8813 20.1485 31.0054 19.3304 30.5682 18.7507C29.8867 17.847 29.4788 16.8191 29.3424 15.7664C29.3949 15.7662 29.4473 15.7657 29.4999 15.7657C31.0427 15.7657 32.5649 15.8051 34.0558 15.8816C34.2192 17.4411 34.8031 18.9698 35.8106 20.3057C36.0714 20.6516 36.473 20.8345 36.88 20.8345C37.155 20.8345 37.4325 20.751 37.6703 20.5778C38.2604 20.1484 38.3845 19.3303 37.9473 18.7506C37.3305 17.9326 36.9382 17.0125 36.768 16.0646C41.3661 16.4518 45.573 17.2072 49.0161 18.2837C53.5341 19.6962 56.3406 21.6053 56.3406 23.2663C56.3406 24.7286 54.1639 26.3834 50.5599 27.7223C45.1008 25.8891 37.465 24.8418 29.4995 24.8418C21.5347 24.8418 13.8991 25.8892 8.44006 27.7224C4.83592 26.3833 2.65929 24.7285 2.65929 23.2661C2.65929 21.6052 5.46578 19.6959 9.98378 18.2836ZM45.7973 29.1116C41.1083 30.1859 35.454 30.7666 29.5001 30.7666C23.5459 30.7666 17.8915 30.1859 13.2023 29.1115C17.8811 28.0445 23.5834 27.4541 29.4997 27.4541C35.4163 27.4542 41.1184 28.0447 45.7973 29.1116ZM29.4999 48.3876C16.4387 48.3876 5.52774 39.61 3.14408 28.0268C4.52465 28.9644 6.46873 29.8915 9.17735 30.7383C14.625 32.4415 21.8424 33.3793 29.5001 33.3793C37.1578 33.3793 44.3751 32.4413 49.8228 30.7383C52.5311 29.8916 54.4751 28.9647 55.8557 28.027C53.4717 39.6101 42.5611 48.3876 29.4999 48.3876Z" fill="black"/>
</svg>
