<svg width="26" height="30" viewBox="0 0 26 30" fill="none" xmlns="http://www.w3.org/2000/svg">
<path d="M17.1823 13.5733C19.0554 12.2072 20.2751 9.99643 20.2751 7.50584C20.2751 3.36711 16.908 0 12.7693 0C8.63054 0 5.26342 3.36711 5.26342 7.50584C5.26342 9.99643 6.4831 12.2072 8.35622 13.5733C3.70002 15.3551 0.384644 19.8695 0.384644 25.1446C0.384644 27.4209 2.23655 29.2728 4.51285 29.2728H21.0257C23.302 29.2728 25.1539 27.4209 25.1539 25.1446C25.1539 19.8695 21.8385 15.3551 17.1823 13.5733ZM7.5152 7.50584C7.5152 4.60875 9.87217 2.25177 12.7693 2.25177C15.6664 2.25177 18.0233 4.60875 18.0233 7.50584C18.0233 10.4029 15.6664 12.76 12.7693 12.76C9.87217 12.76 7.5152 10.4029 7.5152 7.50584ZM21.0257 27.021H4.51285C3.47818 27.021 2.63642 26.1793 2.63642 25.1445C2.63642 19.5572 7.18193 15.0116 12.7693 15.0116C18.3567 15.0116 22.9022 19.5571 22.9022 25.1445C22.9022 26.1793 22.0604 27.021 21.0257 27.021Z" fill="#414141"/>
</svg>
